<?xml version="1.0" encoding="UTF-8" standalone="no"?>
<!DOCTYPE svg PUBLIC "-//W3C//DTD SVG 1.1//EN"
"http://www.w3.org/Graphics/SVG/1.1/DTD/svg11.dtd">
<svg viewBox="0 0 909 1286" version="1.1" xmlns="http://www.w3.org/2000/svg" xmlns:xlink="http://www.w3.org/1999/xlink">
<defs>
<clipPath id="c0_7"><path d="M0,598.2V196.5H909.5V598.2Z"/></clipPath>
<style type="text/css"><![CDATA[
.g0_7{
fill: #C0C0C0;
fill-opacity: 0.5;
}
.g1_7{
fill: #D9D9D9;
}
.g2_7{
fill: #000;
}
.g3_7{
fill: #ED7D31;
}
]]></style>
</defs>
<path fill-rule="evenodd" d="M195.7,919.7c3.1,3,5.5,6.1,7.1,9.2c1.7,3.1,2.7,6.1,3.1,9c.4,2.9,.2,5.7,-.7,8.2c-.8,2.6,-2.3,4.8,-4.3,6.8c-1.3,1.4,-2.8,2.4,-4.3,3.3c-1.5,.8,-3,1.4,-4.5,1.7c-1.5,.4,-2.9,.7,-4,.7c-1.2,.1,-2.2,0,-2.8,-.1c-.6,-.2,-1.3,-.5,-2.1,-1.1c-.7,-.4,-1.6,-1.2,-2.6,-2.2c-.8,-.8,-1.4,-1.4,-1.8,-2c-.5,-.4,-.8,-.9,-1,-1.3c-.2,-.4,-.3,-.7,-.3,-1c0,-.2,.1,-.4,.3,-.6c.2,-.3,1,-.4,2.1,-.4c1.1,0,2.4,0,3.9,-.2c1.5,-.2,3.2,-.6,5,-1.2c1.8,-.6,3.4,-1.7,5,-3.3c1.2,-1.1,2.1,-2.5,2.5,-4c.5,-1.5,.7,-3,.4,-4.7c-.2,-1.6,-.7,-3.3,-1.7,-5c-1,-1.7,-2.3,-3.4,-4,-5.1c-1.9,-1.9,-3.7,-3.2,-5.6,-4c-1.8,-.8,-3.7,-1.2,-5.5,-1.3c-1.9,-.2,-3.7,0,-5.7,.2c-1.9,.3,-3.9,.6,-6,.9c-2,.3,-4,.6,-6.2,.6c-2.2,0,-4.4,-.1,-6.6,-.7c-2.3,-.6,-4.7,-1.5,-7.1,-2.9c-2.4,-1.3,-5,-3.3,-7.6,-6c-2.8,-2.7,-4.8,-5.4,-6.4,-8.2c-1.5,-2.7,-2.3,-5.4,-2.7,-8c-.4,-2.5,-.1,-4.9,.7,-7.3c.7,-2.2,2,-4.2,3.8,-6c.9,-1,2,-1.8,3.1,-2.4c1.2,-.7,2.4,-1.2,3.7,-1.7c1.2,-.3,2.4,-.6,3.5,-.7c1.2,-.1,2,-.1,2.6,0c.5,.1,.9,.3,1.1,.4c.3,.1,.6,.3,.9,.5c.3,.3,.7,.6,1.1,1c.5,.3,1,.8,1.6,1.5c.6,.6,1.2,1.1,1.6,1.6c.4,.5,.7,1,1,1.4c.3,.4,.4,.7,.4,.9c.1,.3,0,.5,-.1,.7c-.3,.2,-.9,.3,-1.8,.3c-1,.1,-2.1,.2,-3.5,.3c-1.3,.2,-2.6,.4,-4.1,.9c-1.5,.5,-2.8,1.4,-4.1,2.7c-1.1,1.1,-1.9,2.3,-2.3,3.7c-.3,1.3,-.4,2.7,-.1,4c.3,1.4,.8,2.7,1.6,4.1c.9,1.4,1.9,2.7,3.1,4c1.8,1.8,3.7,3.1,5.5,3.9c1.9,.7,3.7,1.1,5.6,1.3c1.9,.2,3.8,0,5.8,-.2c2,-.3,3.9,-.7,5.9,-1c2.1,-.3,4.2,-.5,6.3,-.6c2.2,0,4.4,.1,6.6,.6c2.3,.6,4.7,1.5,7.1,2.8c2.4,1.4,5,3.4,7.5,6Z" class="g0_7"/>
<path fill-rule="evenodd" d="M240.1,893.4c.6,.5,1,1,1.4,1.4c.4,.5,.7,.9,1,1.2c.2,.3,.4,.7,.5,1c.2,.4,.3,.8,.5,1.3c.1,.6,.1,1.5,.1,2.9c.1,1.3,-.2,2.8,-.5,4.5c-.3,1.7,-1,3.4,-1.7,5.2c-.9,1.7,-2.1,3.4,-3.7,4.9c-2.7,2.7,-5.8,4.4,-9.3,5.1c-3.6,.8,-7.5,.6,-11.8,-.7c-4.3,-1.3,-8.8,-3.4,-13.7,-6.7c-4.8,-3.2,-9.9,-7.4,-15.2,-12.7C182.4,895.4,178,890.1,174.6,885c-3.4,-5.1,-5.6,-9.9,-7,-14.5c-1.4,-4.4,-1.6,-8.6,-1,-12.4c.6,-3.7,2.3,-6.9,5,-9.6c1.2,-1.2,2.5,-2.2,4,-3c1.5,-.8,3,-1.4,4.5,-1.8c1.5,-.3,2.9,-.6,4.4,-.6c1.4,-.1,2.5,-.1,3.2,.1c.8,.2,1.3,.3,1.7,.5c.3,.2,.6,.4,1,.6c.4,.3,.8,.6,1.3,1c.4,.4,1,1,1.6,1.6c.6,.6,1.2,1.2,1.6,1.7c.4,.6,.7,1,.9,1.4c.3,.5,.4,.8,.5,1c0,.3,-.1,.5,-.2,.7c-.3,.3,-1.1,.4,-2.3,.2c-1.2,-.1,-2.6,-.1,-4.2,-.1c-1.6,.1,-3.4,.4,-5.2,.9c-1.9,.6,-3.6,1.7,-5.3,3.4c-1.9,1.9,-3,4.1,-3.3,6.7c-.4,2.7,0,5.7,1.2,9c1.3,3.3,3.1,6.9,5.8,10.7c2.7,3.8,6,7.8,10.2,12c4.2,4.1,8.1,7.4,11.8,10.1c3.7,2.6,7.2,4.4,10.4,5.5c3.2,1.1,6.1,1.4,8.7,.9c2.6,-.4,4.9,-1.6,6.9,-3.5c1.6,-1.7,2.7,-3.4,3.3,-5.3c.6,-1.9,1,-3.6,1,-5.3c.1,-1.6,.1,-3,0,-4.2c-.1,-1.2,0,-1.9,.3,-2.3c.2,-.1,.4,-.2,.6,-.2c.2,0,.5,.1,.8,.3c.3,.2,.8,.6,1.3,1.1c.6,.4,1.3,1,2,1.8Z" class="g0_7"/>
<path fill-rule="evenodd" d="M260.7,888.6c.3,.2,.5,.5,.6,.8c.1,.3,.1,.6,0,.9c0,.4,-.2,.7,-.4,1.2c-.4,.4,-.7,.9,-1.3,1.4c-.5,.5,-1,.9,-1.4,1.2c-.4,.3,-.8,.5,-1.2,.5c-.3,.1,-.6,.1,-.9,0c-.3,-.1,-.6,-.3,-.8,-.6C234.4,873.2,213.6,852.4,192.8,831.5c-.3,-.2,-.5,-.5,-.6,-.8c-.1,-.3,-.1,-.6,0,-1c.1,-.3,.3,-.7,.6,-1.2c.3,-.4,.6,-.8,1.1,-1.3c.5,-.5,1,-.9,1.4,-1.3c.5,-.2,.9,-.4,1.2,-.5c.3,0,.6,0,.9,.1c.3,.1,.6,.3,.9,.6c20.8,20.8,41.6,41.6,62.4,62.5Z" class="g0_7"/>
<path fill-rule="evenodd" d="M292.3,852.4c.7,.6,1.1,1.2,1.5,1.7c.5,.4,.8,1,1,1.3c.2,.4,.3,.8,.3,1.1c0,.3,-.1,.5,-.3,.6c-6.6,6.6,-13.2,13.2,-19.8,19.8c-.4,.5,-1.2,.7,-2.1,.6c-1,-.1,-2.1,-.8,-3.4,-2.1C250.1,856,230.8,836.7,211.4,817.3c-1.3,-1.3,-2,-2.4,-2.1,-3.4c-.1,-.9,.2,-1.6,.6,-2.1c6.5,-6.5,13,-13,19.6,-19.6c.1,-.1,.3,-.2,.6,-.2c.3,0,.6,.1,1,.3c.4,.2,.8,.5,1.4,.9c.4,.4,1.1,1,1.7,1.6c.6,.6,1.1,1.2,1.5,1.6c.4,.6,.8,1,.9,1.4c.2,.4,.3,.7,.3,1c0,.3,-.1,.5,-.2,.6c-5.4,5.4,-10.8,10.8,-16.1,16.1c6.8,6.8,13.6,13.7,20.4,20.5c4.6,-4.6,9.2,-9.2,13.8,-13.8c.2,-.2,.4,-.3,.7,-.3c.2,0,.6,.1,1,.3c.3,.1,.8,.5,1.3,.9c.5,.4,1.1,1,1.7,1.6c.6,.6,1.1,1.1,1.5,1.6c.4,.5,.7,.9,.9,1.3c.1,.3,.2,.6,.2,.9c0,.3,-.1,.5,-.3,.6c-4.6,4.7,-9.2,9.3,-13.8,13.9c7.7,7.7,15.5,15.5,23.3,23.3c5.4,-5.5,10.9,-10.9,16.3,-16.4c.2,-.1,.4,-.2,.7,-.2c.3,0,.6,0,.9,.2c.4,.2,.9,.5,1.4,.9c.5,.4,1.1,1,1.7,1.6Z" class="g0_7"/>
<path fill-rule="evenodd" d="M332.4,812.4c.6,.7,1.2,1.3,1.5,1.9c.3,.6,.5,1.2,.5,1.8c.1,.5,.1,.9,-.1,1.4c-.1,.4,-.3,.8,-.6,1.1c-.6,.6,-1.2,1.2,-1.8,1.8c-.6,.5,-1.2,.9,-1.8,1.2c-.6,.2,-1.4,.3,-2.2,.2c-.9,-.1,-1.9,-.4,-3.1,-.9c-1.3,-.4,-2.8,-1.1,-4.5,-1.9c-16.5,-8.3,-33.1,-16.2,-49.6,-24.5c-2.6,-1.3,-5.2,-2.6,-8,-4.1c-2.7,-1.4,-5.4,-2.8,-8,-4.2v.1c2.4,2.3,4.9,4.8,7.5,7.3c2.5,2.4,5,5,7.5,7.4c13.1,13.1,26.2,26.2,39.3,39.3c.2,.3,.4,.5,.5,.8c.2,.4,.2,.7,0,1c0,.4,-.2,.7,-.4,1.2c-.3,.4,-.7,.9,-1.3,1.4c-.5,.5,-1,.9,-1.4,1.2c-.4,.3,-.8,.4,-1.1,.5c-.4,.1,-.6,.1,-1,-.1c-.3,-.1,-.5,-.2,-.8,-.5c-20,-20,-40,-40.1,-60.1,-60.1c-1.3,-1.3,-2,-2.6,-2.1,-3.6c-.1,-1,.1,-1.8,.7,-2.4c.9,-.9,1.8,-1.8,2.7,-2.7c.6,-.6,1.3,-1.1,1.9,-1.3c.5,-.3,1.2,-.4,1.9,-.4c.8,.1,1.6,.3,2.6,.6c1,.4,2.2,.9,3.6,1.7c12.7,6.3,25.5,12.5,38.2,18.9c2.4,1.2,4.6,2.2,6.9,3.3c2.2,1.2,4.4,2.3,6.5,3.4c2.1,1.1,4.2,2.1,6.3,3.2c2,1.1,4.1,2.1,6.2,3.2c-2.7,-2.7,-5.5,-5.4,-8.4,-8.3c-2.9,-2.8,-5.6,-5.5,-8.3,-8.2C290.4,781.3,278.6,769.6,266.8,757.8c-.2,-.3,-.4,-.5,-.5,-.8c-.1,-.3,-.2,-.6,-.1,-1c.1,-.4,.2,-.7,.5,-1.1c.3,-.4,.7,-.9,1.3,-1.5c.5,-.5,1,-.9,1.3,-1.2c.5,-.3,.8,-.4,1.2,-.5c.3,0,.7,0,1,.1c.3,.1,.5,.3,.8,.5c20,20.1,40.1,40.1,60.1,60.1Z" class="g0_7"/>
<path fill-rule="evenodd" d="M365.2,768.3c.5,.6,1,1,1.4,1.5c.3,.4,.7,.8,.9,1.1c.3,.4,.4,.7,.6,1.1c.2,.3,.3,.7,.4,1.3c.2,.5,.2,1.5,.2,2.8c0,1.4,-.2,2.9,-.5,4.5c-.4,1.7,-1,3.4,-1.8,5.2c-.8,1.8,-2.1,3.4,-3.6,4.9c-2.7,2.7,-5.8,4.5,-9.3,5.2c-3.6,.7,-7.5,.5,-11.8,-.8c-4.3,-1.3,-8.9,-3.4,-13.7,-6.7c-4.8,-3.2,-9.9,-7.4,-15.2,-12.7c-5.4,-5.4,-9.7,-10.7,-13.1,-15.8c-3.4,-5,-5.6,-9.9,-7.1,-14.4c-1.3,-4.5,-1.6,-8.7,-.9,-12.4c.6,-3.8,2.3,-7,5,-9.7c1.2,-1.2,2.5,-2.2,4,-3c1.4,-.7,2.9,-1.4,4.5,-1.7c1.5,-.4,2.9,-.7,4.4,-.7c1.4,0,2.5,-.1,3.2,.1c.8,.2,1.3,.4,1.6,.6c.4,.1,.7,.3,1.1,.5c.3,.4,.8,.6,1.2,1.1c.5,.4,1,.9,1.6,1.5c.7,.6,1.3,1.3,1.7,1.8c.4,.5,.7,.9,.9,1.3c.3,.5,.4,.8,.4,1c.1,.3,0,.6,-.2,.7c-.3,.3,-1,.4,-2.2,.3c-1.2,-.2,-2.6,-.2,-4.2,-.2c-1.6,.1,-3.4,.4,-5.2,1c-1.9,.5,-3.7,1.6,-5.3,3.3c-1.9,1.9,-3,4.1,-3.4,6.8c-.3,2.6,.1,5.6,1.3,9c1.3,3.3,3.1,6.8,5.8,10.6c2.7,3.9,6,7.8,10.2,12c4.1,4.1,8,7.5,11.8,10.1c3.7,2.6,7.2,4.4,10.4,5.5c3.2,1.1,6,1.4,8.7,1c2.6,-.4,4.9,-1.7,6.8,-3.6c1.7,-1.6,2.8,-3.3,3.4,-5.3c.6,-1.9,.9,-3.6,1,-5.3c.1,-1.6,.1,-3,0,-4.2c-.2,-1.2,0,-1.9,.3,-2.2c.2,-.2,.3,-.3,.5,-.3c.2,0,.5,.1,.9,.3c.3,.3,.8,.6,1.3,1.1c.5,.4,1.2,1.1,2,1.8Z" class="g0_7"/>
<path fill-rule="evenodd" d="M401,743.8c.6,.6,1.1,1.1,1.5,1.6c.4,.5,.7,1,.9,1.4c.2,.4,.3,.7,.3,1c0,.3,-.1,.5,-.2,.7c-6.6,6.6,-13.2,13.2,-19.8,19.7c-.5,.5,-1.2,.8,-2.2,.6c-.9,-.1,-2,-.7,-3.4,-2C358.8,747.4,339.4,728,320.1,708.7c-1.3,-1.3,-2,-2.5,-2.1,-3.4c-.1,-1,.1,-1.7,.6,-2.2c6.5,-6.5,13,-13,19.5,-19.5c.2,-.2,.4,-.3,.7,-.3c.3,0,.6,.1,1,.3c.4,.2,.8,.5,1.3,.9c.5,.4,1.1,1,1.8,1.7c.6,.6,1,1.1,1.5,1.6c.4,.5,.7,1,.8,1.3c.3,.4,.4,.7,.4,1c0,.3,-.1,.5,-.3,.7c-5.4,5.3,-10.7,10.7,-16.1,16.1c6.8,6.8,13.6,13.6,20.4,20.4c4.6,-4.6,9.2,-9.2,13.9,-13.8c.1,-.2,.3,-.3,.6,-.3c.3,.1,.7,.2,1,.3c.4,.2,.8,.5,1.3,.9c.5,.5,1.1,1,1.7,1.6c.7,.6,1.1,1.2,1.5,1.7c.5,.4,.7,.9,.9,1.2c.2,.4,.2,.7,.2,.9c0,.3,-.1,.5,-.3,.7c-4.6,4.6,-9.2,9.2,-13.8,13.8c7.8,7.8,15.6,15.5,23.3,23.3c5.5,-5.4,10.9,-10.9,16.4,-16.3c.1,-.2,.3,-.3,.6,-.3c.3,0,.6,.1,1,.3c.4,.2,.8,.4,1.3,.8c.5,.5,1.2,1,1.8,1.7Z" class="g0_7"/>
<path fill-rule="evenodd" d="M471.7,677.6c.2,.3,.4,.6,.6,.9c.1,.3,.1,.6,-.1,.9c0,.4,-.2,.7,-.4,1.2c-.3,.4,-.7,.9,-1.3,1.4c-.5,.5,-1,.9,-1.4,1.2c-.4,.3,-.8,.4,-1.2,.5c-.3,.1,-.6,.1,-.9,0c-.3,-.1,-.5,-.4,-.8,-.6C447.3,664.2,428.4,645.3,409.5,626.4l-.1,.1c14.3,23.7,28.2,47.7,42.5,71.4c.2,.4,.3,.6,.3,.9c.1,.3,.1,.6,-.1,.9c0,.4,-.2,.8,-.5,1.1c-.2,.4,-.6,.8,-1,1.2c-.5,.4,-.9,.7,-1.3,1c-.3,.3,-.7,.4,-1.1,.5c-.3,.1,-.6,.1,-.9,.1c-.2,0,-.5,-.2,-.8,-.3C423,688.8,399.3,674.7,375.7,660.2c18.9,18.9,37.8,37.8,56.7,56.7c.2,.3,.5,.6,.6,.9c.1,.3,0,.6,-.1,.9c0,.4,-.2,.7,-.4,1.2c-.3,.4,-.8,.9,-1.3,1.5c-.5,.5,-1,.8,-1.4,1.1c-.5,.3,-.8,.5,-1.2,.5c-.3,.1,-.6,.1,-.9,0c-.3,-.1,-.5,-.3,-.8,-.6C406.9,702.4,387,682.5,367,662.5c-1.4,-1.4,-2.2,-2.6,-2.3,-3.7c-.1,-1.1,.1,-1.9,.7,-2.5c1.1,-1.1,2.2,-2.2,3.3,-3.3c.7,-.7,1.4,-1.2,2.2,-1.5c.7,-.3,1.4,-.5,2.3,-.5c.8,.1,1.7,.4,2.6,.7c.9,.5,1.9,1,3.1,1.7c19.5,11.9,39.3,23.5,58.9,35.4c0,-.1,.1,-.1,.1,-.2c-11.6,-19.7,-23,-39.5,-34.7,-59.2c-.8,-1.2,-1.4,-2.4,-1.8,-3.3c-.4,-1,-.7,-1.9,-.8,-2.7c-.1,-.7,0,-1.4,.2,-2c.3,-.6,.7,-1.2,1.2,-1.7c1.2,-1.1,2.3,-2.3,3.5,-3.5c.3,-.3,.7,-.6,1.1,-.7c.5,-.2,1,-.2,1.5,-.1c.5,.2,1.1,.4,1.7,.7c.6,.4,1.3,.9,2,1.6c20,20,39.9,40,59.9,59.9Z" class="g0_7"/>
<path fill-rule="evenodd" d="M485.1,600.2c5.3,5.3,9.6,10.4,13.1,15.4c3.4,5,5.8,9.7,7.3,14.3c1.4,4.5,1.7,8.8,.9,12.7c-.7,4,-2.7,7.5,-5.8,10.7c-3.1,3,-6.5,5,-10.2,5.8c-3.8,.7,-7.8,.6,-12,-.8c-4.2,-1.3,-8.8,-3.6,-13.7,-7c-4.8,-3.4,-9.9,-7.8,-15.3,-13.2C444.3,633,440,627.9,436.6,622.9c-3.4,-4.9,-5.7,-9.7,-7.2,-14.2C428,604.2,427.8,600,428.5,596c.8,-3.9,2.7,-7.4,5.9,-10.6c3,-3,6.3,-5,10.1,-5.8c3.7,-.7,7.6,-.6,11.9,.7c4.3,1.3,8.8,3.6,13.6,6.9c4.8,3.4,9.8,7.7,15.1,13Zm-5.2,6.4c-3.6,-3.7,-7.3,-7,-10.9,-9.7c-3.6,-2.8,-7,-4.8,-10.3,-6.2c-3.3,-1.4,-6.4,-1.9,-9.3,-1.6c-3,.3,-5.6,1.7,-8,4c-2.4,2.4,-3.6,5.1,-3.8,8.1c-.2,3.1,.3,6.3,1.7,9.6c1.4,3.4,3.3,6.8,6,10.4c2.8,3.5,5.8,7,9.3,10.5c3.8,3.8,7.6,7.2,11.2,10c3.6,2.8,7,4.9,10.3,6.3c3.3,1.4,6.4,1.9,9.3,1.6c2.9,-.3,5.5,-1.7,8,-4.1c2.3,-2.4,3.7,-5.1,3.9,-8.2c.2,-3,-.4,-6.3,-1.8,-9.6c-1.4,-3.4,-3.4,-6.9,-6.2,-10.5c-2.7,-3.6,-5.8,-7.1,-9.4,-10.6Z" class="g0_7"/>
<path fill-rule="evenodd" d="M525.2,559.7c5.7,5.6,10.1,11,13.4,16.1c3.3,5.1,5.5,9.9,6.5,14.4c1.1,4.5,1,8.8,-.2,12.7c-1.2,3.9,-3.5,7.6,-7,11.2c-2.9,2.9,-5.9,5.8,-8.8,8.7c-.4,.5,-1.2,.7,-2.1,.6c-1,-.1,-2.1,-.8,-3.4,-2.1C504.2,602,484.9,582.6,465.5,563.2c-1.3,-1.3,-2,-2.4,-2.1,-3.4c-.1,-.9,.1,-1.6,.6,-2.1c3.1,-3.1,6.2,-6.2,9.3,-9.3c3.6,-3.6,7.3,-6,11.3,-6.9c3.9,-1,8,-1,12.4,.1c4.4,1.1,9.1,3.1,13.8,6.2c4.7,3,9.6,7,14.4,11.9Zm-5.4,6.1c-3.5,-3.6,-7.1,-6.5,-10.7,-9.1c-3.5,-2.5,-7,-4.2,-10.4,-5.2c-3.4,-1.1,-6.6,-1.3,-9.6,-.7c-3.1,.5,-6,2.2,-8.9,5.1c-1.8,1.8,-3.7,3.7,-5.6,5.5c16.9,16.9,33.8,33.8,50.7,50.7c1.9,-1.9,3.8,-3.7,5.7,-5.6c2.6,-2.7,4.3,-5.4,5.1,-8.2c.7,-2.9,.7,-6,-.3,-9.3c-1,-3.4,-2.7,-7,-5.4,-10.9c-2.6,-3.8,-6.1,-7.9,-10.6,-12.3Z" class="g0_7"/>
<path fill-rule="evenodd" d="M586.5,558.2c.6,.7,1.1,1.2,1.5,1.7c.5,.5,.8,1,1,1.4c.2,.4,.2,.7,.3,1c0,.3,-.1,.5,-.3,.6c-6.6,6.6,-13.2,13.2,-19.8,19.8c-.4,.5,-1.2,.7,-2.1,.6c-1,-.1,-2.1,-.8,-3.4,-2.1C544.3,561.9,525,542.5,505.6,523.1c-1.3,-1.3,-2,-2.4,-2.1,-3.4c-.1,-.9,.1,-1.6,.6,-2.1c6.5,-6.5,13.1,-13.1,19.6,-19.6c.1,-.1,.3,-.2,.6,-.2c.3,0,.6,.1,1,.3c.4,.2,.8,.5,1.3,.9c.5,.4,1.2,1,1.8,1.6c.6,.6,1.1,1.2,1.5,1.7c.4,.5,.7,.9,.9,1.3c.2,.4,.3,.7,.3,1c0,.3,-.1,.5,-.2,.6c-5.4,5.4,-10.8,10.8,-16.1,16.1c6.8,6.9,13.6,13.7,20.4,20.5c4.6,-4.6,9.2,-9.2,13.8,-13.8c.2,-.2,.4,-.3,.7,-.3c.3,0,.6,.1,1,.3c.3,.2,.8,.5,1.3,.9c.5,.4,1,.9,1.7,1.6c.6,.6,1.1,1.1,1.5,1.6c.4,.5,.7,.9,.9,1.3c.1,.3,.2,.7,.2,.9c0,.3,-.2,.5,-.3,.7c-4.6,4.5,-9.2,9.2,-13.8,13.8c7.7,7.7,15.5,15.5,23.3,23.3c5.4,-5.5,10.9,-10.9,16.3,-16.4c.2,-.1,.4,-.2,.7,-.2c.3,0,.6,.1,.9,.2c.4,.2,.9,.5,1.4,.9c.4,.4,1.1,1,1.7,1.6Z" class="g0_7"/>
<path fill-rule="evenodd" d="M616.6,527.8c.7,.6,1.2,1.2,1.6,1.7c.4,.5,.8,1,1,1.4c.2,.4,.3,.7,.3,1c0,.3,0,.6,-.2,.8c-6.1,6,-12.2,12.1,-18.2,18.2c-.5,.5,-1.2,.7,-2.2,.5c-1,0,-2.1,-.7,-3.4,-2C575.4,529.3,555.3,509.2,535.2,489.1c-.2,-.2,-.5,-.5,-.6,-.8c-.1,-.3,-.1,-.6,0,-1c.1,-.3,.3,-.7,.5,-1.1c.3,-.4,.7,-.9,1.2,-1.5c.6,-.5,1.1,-.9,1.5,-1.2c.4,-.2,.8,-.4,1.1,-.5c.4,-.1,.7,-.1,1,.1c.2,.1,.6,.3,.8,.5c18.8,18.8,37.5,37.6,56.3,56.3c4.9,-4.9,9.8,-9.8,14.8,-14.7c.2,-.2,.4,-.3,.7,-.3c.3,0,.6,.1,1,.3c.4,.2,.8,.5,1.3,.9c.5,.4,1.2,1,1.8,1.7Z" class="g0_7"/>
<path fill-rule="evenodd" d="M630.3,485.1c3,3.1,5.4,6.2,7.1,9.2c1.6,3.1,2.6,6.1,3.1,9c.4,3,.1,5.7,-.7,8.3c-.9,2.5,-2.3,4.8,-4.3,6.8c-1.4,1.3,-2.8,2.4,-4.4,3.2c-1.5,.8,-3,1.4,-4.5,1.8c-1.5,.4,-2.8,.6,-4,.7c-1.2,0,-2.1,0,-2.7,-.2c-.7,-.1,-1.4,-.4,-2.1,-1c-.8,-.5,-1.6,-1.2,-2.7,-2.3c-.8,-.7,-1.3,-1.4,-1.8,-1.9c-.4,-.5,-.8,-1,-1,-1.3c-.2,-.4,-.3,-.8,-.3,-1c0,-.3,.1,-.5,.3,-.6c.3,-.3,1,-.5,2.1,-.5c1.1,.1,2.5,0,4,-.1c1.5,-.2,3.1,-.6,4.9,-1.3c1.8,-.5,3.5,-1.7,5,-3.2c1.2,-1.2,2.1,-2.5,2.6,-4c.4,-1.5,.6,-3.1,.4,-4.7c-.3,-1.7,-.8,-3.3,-1.8,-5c-1,-1.8,-2.3,-3.5,-4,-5.2c-1.9,-1.9,-3.7,-3.1,-5.5,-3.9c-1.9,-.8,-3.7,-1.2,-5.6,-1.4c-1.8,-.1,-3.7,0,-5.7,.2c-1.9,.3,-3.9,.7,-5.9,1c-2.1,.3,-4.1,.5,-6.2,.5c-2.2,.1,-4.4,-.1,-6.7,-.7c-2.3,-.5,-4.6,-1.5,-7.1,-2.8c-2.4,-1.4,-4.9,-3.3,-7.6,-6c-2.7,-2.7,-4.8,-5.5,-6.3,-8.3c-1.6,-2.7,-2.4,-5.3,-2.8,-7.9c-.3,-2.6,-.1,-5,.7,-7.3c.8,-2.3,2.1,-4.3,3.9,-6.1c.9,-.9,1.9,-1.7,3.1,-2.4c1.2,-.7,2.4,-1.2,3.6,-1.6c1.3,-.3,2.4,-.6,3.6,-.7c1.2,-.1,2,-.2,2.5,-.1c.6,.2,.9,.3,1.1,.4c.3,.2,.6,.3,.9,.6c.3,.2,.7,.6,1.2,.9c.4,.4,.9,.9,1.5,1.5c.7,.7,1.2,1.2,1.6,1.7c.4,.5,.8,.9,1,1.3c.3,.4,.4,.7,.5,1c0,.2,0,.5,-.2,.6c-.2,.2,-.8,.4,-1.8,.4c-.9,.1,-2.1,.1,-3.4,.2c-1.3,.2,-2.7,.5,-4.2,1c-1.4,.5,-2.8,1.4,-4,2.6c-1.2,1.2,-1.9,2.4,-2.3,3.7c-.4,1.4,-.4,2.7,-.2,4.1c.3,1.3,.8,2.7,1.7,4.1c.8,1.4,1.8,2.7,3.1,3.9c1.8,1.8,3.6,3.1,5.5,3.9c1.8,.8,3.7,1.2,5.6,1.3c1.8,.2,3.7,.1,5.7,-.2c2,-.2,3.9,-.6,6,-.9c2,-.3,4.1,-.5,6.2,-.6c2.2,-.1,4.4,.1,6.7,.6c2.2,.5,4.6,1.4,7,2.8c2.5,1.4,5,3.4,7.6,5.9Z" class="g0_7"/>
<path fill-rule="evenodd" d="M698.9,446.9c.9,.6,1.5,1.1,2,1.5c.5,.4,.7,.9,.8,1.3c.1,.4,0,.9,-.3,1.3c-.4,.5,-.9,1,-1.5,1.7c-.7,.7,-1.2,1.2,-1.7,1.5c-.4,.3,-.8,.5,-1.2,.6c-.3,.1,-.5,.1,-.9,0c-.2,-.1,-.6,-.3,-1,-.5c-6.4,-4.1,-12.9,-8.2,-19.4,-12.3c-5.7,5.7,-11.4,11.4,-17.1,17.1c4.1,6.3,8.2,12.7,12.3,19c.2,.4,.4,.7,.5,1c.2,.4,.1,.7,.1,1c0,.5,-.2,.9,-.5,1.2c-.4,.5,-.8,1,-1.4,1.6c-.6,.6,-1.1,1.1,-1.6,1.4c-.5,.3,-.9,.4,-1.3,.3c-.4,-.1,-.9,-.3,-1.3,-.8c-.4,-.4,-.9,-1.1,-1.5,-2c-15.6,-24.7,-31,-49.6,-46.7,-74.3c-.2,-.5,-.4,-.9,-.5,-1.3c-.1,-.4,-.1,-.7,0,-1.1c.1,-.4,.4,-.9,.8,-1.4c.3,-.4,.8,-.9,1.4,-1.6c.7,-.6,1.3,-1.2,1.8,-1.6c.5,-.4,.9,-.7,1.4,-.8c.4,-.1,.8,-.2,1.2,0c.4,0,.8,.3,1.3,.5c24.7,15.7,49.6,31.1,74.3,46.7ZM627.8,411.2q-.1,.1,-.1,.1c8.5,13.1,16.9,26.4,25.4,39.5c4.7,-4.7,9.5,-9.5,14.3,-14.3C654.2,428,640.9,419.7,627.8,411.2Z" class="g0_7"/>
<path fill-rule="evenodd" d="M688.1,371.8c3.2,3.2,5.8,6.5,7.8,9.8c1.9,3.3,3.1,6.5,3.8,9.6c.6,3.1,.4,6.1,-.4,8.9c-.8,2.9,-2.5,5.6,-5.1,8.1c-1.5,1.6,-3.1,3.1,-4.7,4.7c7.9,7.8,15.7,15.6,23.5,23.4c.2,.3,.4,.6,.6,.9c.1,.3,.1,.6,0,.9c-.1,.3,-.3,.7,-.5,1.1c-.3,.4,-.7,.9,-1.2,1.5c-.6,.5,-1,.9,-1.5,1.2c-.4,.2,-.8,.4,-1.2,.5c-.3,.1,-.6,.1,-.9,0c-.3,-.1,-.5,-.4,-.8,-.6c-20,-20,-40,-40.1,-60.1,-60.1c-1.3,-1.3,-2.1,-2.5,-2.2,-3.5c-.1,-1,.1,-1.8,.7,-2.4c2.9,-2.9,5.9,-5.8,8.8,-8.8c.9,-.9,1.8,-1.7,2.7,-2.4c1,-.7,2.2,-1.4,3.7,-2.2c1.5,-.7,3.3,-1.1,5.5,-1.2c2.2,-.1,4.5,.2,6.9,1c2.3,.8,4.8,1.9,7.2,3.5c2.5,1.6,4.9,3.6,7.4,6.1Zm-5.1,6.4c-2.6,-2.6,-5.2,-4.5,-7.6,-5.7c-2.3,-1.1,-4.5,-1.7,-6.2,-1.6c-1.8,0,-3.3,.4,-4.6,1.2c-1.2,.7,-2.3,1.6,-3.2,2.5c-1.7,1.7,-3.4,3.4,-5.1,5.1c8.7,8.7,17.4,17.4,26.1,26.1c1.7,-1.7,3.3,-3.3,5,-4.9c1.6,-1.7,2.7,-3.4,3.1,-5.2c.4,-1.7,.4,-3.6,-.1,-5.5c-.4,-1.9,-1.3,-4,-2.6,-6c-1.2,-2,-2.8,-4,-4.8,-6Z" class="g0_7"/>
<path fill-rule="evenodd" d="M721.8,338.1c3.2,3.3,5.8,6.6,7.7,9.8c2,3.3,3.2,6.5,3.8,9.6c.7,3.1,.4,6.1,-.3,8.9c-.9,2.9,-2.6,5.6,-5.1,8.1c-1.6,1.6,-3.1,3.2,-4.7,4.7c7.8,7.8,15.6,15.6,23.5,23.5c.2,.2,.4,.5,.5,.8c.1,.3,.1,.6,0,.9c0,.4,-.2,.7,-.4,1.2c-.3,.4,-.7,.9,-1.3,1.4c-.5,.6,-1,.9,-1.4,1.2c-.4,.3,-.8,.4,-1.2,.5c-.3,.1,-.6,.1,-.9,0c-.3,-.1,-.6,-.3,-.8,-.6c-20,-20,-40.1,-40,-60.1,-60c-1.4,-1.4,-2.1,-2.6,-2.2,-3.6c-.1,-1,.1,-1.8,.6,-2.3c3,-3,5.9,-5.9,8.9,-8.9c.8,-.8,1.8,-1.7,2.7,-2.4c.9,-.6,2.2,-1.4,3.6,-2.1c1.6,-.7,3.4,-1.2,5.6,-1.3c2.2,0,4.5,.3,6.9,1c2.3,.8,4.7,1.9,7.2,3.5c2.4,1.7,4.9,3.6,7.4,6.1Zm-5.1,6.5c-2.7,-2.7,-5.2,-4.6,-7.6,-5.8c-2.4,-1.1,-4.5,-1.7,-6.3,-1.6c-1.7,0,-3.2,.5,-4.5,1.2c-1.2,.7,-2.3,1.6,-3.3,2.5c-1.6,1.7,-3.3,3.4,-5,5.1c8.7,8.7,17.4,17.4,26.1,26.1c1.6,-1.6,3.3,-3.3,4.9,-4.9c1.7,-1.7,2.7,-3.4,3.2,-5.2c.4,-1.7,.4,-3.6,-.1,-5.5c-.5,-1.9,-1.3,-3.9,-2.6,-6c-1.3,-2,-2.8,-4,-4.8,-5.9Z" class="g0_7"/>
<path fill-rule="evenodd" d="M107.8,1189.8H801.9v-.7H107.8v.7Z" class="g1_7"/>
<path fill-rule="evenodd" d="M110,158.4H633.5v-2.2H110v2.2Z" class="g2_7"/>
<image clip-path="url(#c0_7)" preserveAspectRatio="none" x="110" y="197" width="689" height="387" xlink:href="img/1.jpg"/>
<path fill-rule="evenodd" d="M36.7,40H40V36.7H36.7V40Z" class="g3_7"/>
<path fill-rule="evenodd" d="M36.7,40H40V36.7H36.7V40Z" class="g3_7"/>
<path fill-rule="evenodd" d="M40,40H869.7V36.7H40V40Z" class="g3_7"/>
<path fill-rule="evenodd" d="M869.7,40H873V36.7h-3.3V40Z" class="g3_7"/>
<path fill-rule="evenodd" d="M869.7,40H873V36.7h-3.3V40Z" class="g3_7"/>
<path fill-rule="evenodd" d="M36.7,1246.5H40V40H36.7V1246.5Z" class="g3_7"/>
<path fill-rule="evenodd" d="M869.7,1246.5H873V40h-3.3V1246.5Z" class="g3_7"/>
<path fill-rule="evenodd" d="M36.7,1249.8H40v-3.3H36.7v3.3Z" class="g3_7"/>
<path fill-rule="evenodd" d="M36.7,1249.8H40v-3.3H36.7v3.3Z" class="g3_7"/>
<path fill-rule="evenodd" d="M40,1249.8H869.7v-3.3H40v3.3Z" class="g3_7"/>
<path fill-rule="evenodd" d="M869.7,1249.8H873v-3.3h-3.3v3.3Z" class="g3_7"/>
<path fill-rule="evenodd" d="M869.7,1249.8H873v-3.3h-3.3v3.3Z" class="g3_7"/>
</svg>